<svg width="127" height="83" viewBox="0 0 127 83" fill="none" xmlns="http://www.w3.org/2000/svg">
<path d="M88.2148 20.5156V24.8516C88.2148 27.1823 88.0065 29.1484 87.5898 30.75C87.1732 32.3516 86.5742 33.6406 85.793 34.6172C85.0117 35.5938 84.0677 36.3034 82.9609 36.7461C81.8672 37.1758 80.6302 37.3906 79.25 37.3906C78.1562 37.3906 77.1471 37.2539 76.2227 36.9805C75.2982 36.707 74.4648 36.2708 73.7227 35.6719C72.9935 35.0599 72.3685 34.2656 71.8477 33.2891C71.3268 32.3125 70.9297 31.1276 70.6562 29.7344C70.3828 28.3411 70.2461 26.7135 70.2461 24.8516V20.5156C70.2461 18.1849 70.4544 16.2318 70.8711 14.6562C71.3008 13.0807 71.9062 11.8177 72.6875 10.8672C73.4688 9.90365 74.4062 9.21354 75.5 8.79688C76.6068 8.38021 77.8438 8.17188 79.2109 8.17188C80.3177 8.17188 81.3333 8.30859 82.2578 8.58203C83.1953 8.84245 84.0286 9.26562 84.7578 9.85156C85.487 10.4245 86.1055 11.1927 86.6133 12.1562C87.1341 13.1068 87.5312 14.2721 87.8047 15.6523C88.0781 17.0326 88.2148 18.6536 88.2148 20.5156ZM84.582 25.4375V19.9102C84.582 18.6341 84.5039 17.5143 84.3477 16.5508C84.2044 15.5742 83.9896 14.7409 83.7031 14.0508C83.4167 13.3607 83.0521 12.8008 82.6094 12.3711C82.1797 11.9414 81.6784 11.6289 81.1055 11.4336C80.5456 11.2253 79.9141 11.1211 79.2109 11.1211C78.3516 11.1211 77.5898 11.2839 76.9258 11.6094C76.2617 11.9219 75.7018 12.4232 75.2461 13.1133C74.8034 13.8034 74.4648 14.7083 74.2305 15.8281C73.9961 16.9479 73.8789 18.3086 73.8789 19.9102V25.4375C73.8789 26.7135 73.9505 27.8398 74.0938 28.8164C74.25 29.793 74.4779 30.6393 74.7773 31.3555C75.0768 32.0586 75.4414 32.638 75.8711 33.0938C76.3008 33.5495 76.7956 33.888 77.3555 34.1094C77.9284 34.3177 78.5599 34.4219 79.25 34.4219C80.1354 34.4219 80.9102 34.2526 81.5742 33.9141C82.2383 33.5755 82.7917 33.0482 83.2344 32.332C83.6901 31.6029 84.0286 30.6719 84.25 29.5391C84.4714 28.3932 84.582 27.026 84.582 25.4375Z" fill="#F08803"/>
<path d="M87.5898 30.75L88.5576 31.0018L87.5898 30.75ZM82.9609 36.7461L83.3266 37.6769L83.3323 37.6746L82.9609 36.7461ZM73.7227 35.6719L73.0798 36.4379L73.0872 36.444L73.0946 36.4501L73.7227 35.6719ZM70.8711 14.6562L69.9063 14.3931L69.9043 14.4006L70.8711 14.6562ZM72.6875 10.8672L73.4601 11.5022L73.4643 11.497L72.6875 10.8672ZM75.5 8.79688L75.1477 7.86099L75.144 7.86239L75.5 8.79688ZM82.2578 8.58203L81.9742 9.54097L81.9822 9.54332L81.9902 9.54555L82.2578 8.58203ZM84.7578 9.85156L84.1314 10.6311L84.14 10.6379L84.7578 9.85156ZM86.6133 12.1562L85.7286 12.6225L85.7324 12.6297L85.7363 12.6368L86.6133 12.1562ZM87.8047 15.6523L86.8238 15.8467L87.8047 15.6523ZM84.3477 16.5508L83.3582 16.6959L83.3593 16.7034L83.3606 16.7109L84.3477 16.5508ZM82.6094 12.3711L81.9023 13.0782L81.9075 13.0835L81.9129 13.0887L82.6094 12.3711ZM81.1055 11.4336L80.7567 12.3708L80.7697 12.3756L80.7828 12.3801L81.1055 11.4336ZM76.9258 11.6094L77.3516 12.5142L77.3588 12.5108L77.3659 12.5073L76.9258 11.6094ZM75.2461 13.1133L74.4116 12.5622L74.4044 12.5733L75.2461 13.1133ZM74.0938 28.8164L73.1043 28.9615L73.1063 28.9744L74.0938 28.8164ZM74.7773 31.3555L73.8547 31.7413L73.8573 31.7473L74.7773 31.3555ZM77.3555 34.1094L76.9878 35.0393L77.0007 35.0444L77.0137 35.0492L77.3555 34.1094ZM83.2344 32.332L82.3864 31.802L82.3838 31.8062L83.2344 32.332ZM84.25 29.5391L85.2314 29.7308L85.2318 29.7287L84.25 29.5391ZM87.2148 20.5156V24.8516H89.2148V20.5156H87.2148ZM87.2148 24.8516C87.2148 27.129 87.0106 29.0047 86.6221 30.4982L88.5576 31.0018C89.0024 29.2922 89.2148 27.2356 89.2148 24.8516H87.2148ZM86.6221 30.4982C86.2299 32.0056 85.682 33.1551 85.0121 33.9925L86.5738 35.2419C87.4664 34.1262 88.1165 32.6976 88.5576 31.0018L86.6221 30.4982ZM85.0121 33.9925C84.3333 34.841 83.5279 35.4423 82.5895 35.8176L83.3323 37.6746C84.6075 37.1645 85.6901 36.3465 86.5738 35.2419L85.0121 33.9925ZM82.5953 35.8153C81.6364 36.192 80.5265 36.3906 79.25 36.3906V38.3906C80.7339 38.3906 82.0979 38.1595 83.3266 37.6768L82.5953 35.8153ZM79.25 36.3906C78.2396 36.3906 77.3273 36.2644 76.5063 36.0215L75.939 37.9394C76.967 38.2435 78.0729 38.3906 79.25 38.3906V36.3906ZM76.5063 36.0215C75.7059 35.7848 74.9899 35.4095 74.3507 34.8937L73.0946 36.4501C73.9398 37.1321 74.8904 37.6293 75.939 37.9394L76.5063 36.0215ZM74.3655 34.9059C73.7489 34.3884 73.2003 33.7003 72.73 32.8185L70.9653 33.7597C71.5367 34.831 72.2381 35.7314 73.0798 36.4379L74.3655 34.9059ZM72.73 32.8185C72.2667 31.9498 71.897 30.8639 71.6375 29.5418L69.675 29.927C69.9624 31.3913 70.3869 32.6752 70.9653 33.7597L72.73 32.8185ZM71.6375 29.5418C71.3797 28.2281 71.2461 26.6676 71.2461 24.8516H69.2461C69.2461 26.7595 69.3859 28.4542 69.675 29.927L71.6375 29.5418ZM71.2461 24.8516V20.5156H69.2461V24.8516H71.2461ZM71.2461 20.5156C71.2461 18.2375 71.4505 16.3768 71.8379 14.9119L69.9043 14.4006C69.4584 16.0868 69.2461 18.1323 69.2461 20.5156H71.2461ZM71.8359 14.9194C72.24 13.4376 72.7926 12.3142 73.46 11.5022L71.915 10.2322C71.0199 11.3212 70.3616 12.7239 69.9063 14.3931L71.8359 14.9194ZM73.4643 11.497C74.1414 10.6618 74.9368 10.0815 75.856 9.73136L75.144 7.86239C73.8757 8.34556 72.7961 9.14549 71.9107 10.2374L73.4643 11.497ZM75.8523 9.73275C76.8304 9.36455 77.9456 9.17188 79.2109 9.17188V7.17188C77.7419 7.17188 76.3832 7.39587 75.1477 7.861L75.8523 9.73275ZM79.2109 9.17188C80.2356 9.17188 81.1542 9.29844 81.9742 9.54097L82.5414 7.6231C81.5124 7.31874 80.3998 7.17188 79.2109 7.17188V9.17188ZM81.9902 9.54555C82.8022 9.77111 83.5124 10.1336 84.1314 10.6311L85.3842 9.07205C84.5449 8.39764 83.5884 7.91378 82.5255 7.61851L81.9902 9.54555ZM84.14 10.6379C84.7411 11.1102 85.275 11.7617 85.7286 12.6225L87.4979 11.69C86.9359 10.6237 86.2328 9.73875 85.3756 9.06524L84.14 10.6379ZM85.7363 12.6368C86.196 13.4757 86.5646 14.5385 86.8238 15.8467L88.7856 15.458C88.4979 14.0058 88.0723 12.7379 87.4903 11.6757L85.7363 12.6368ZM86.8238 15.8467C87.0812 17.1462 87.2148 18.6993 87.2148 20.5156H89.2148C89.2148 18.608 89.075 16.9189 88.7856 15.458L86.8238 15.8467ZM85.582 25.4375V19.9102H83.582V25.4375H85.582ZM85.582 19.9102C85.582 18.5958 85.5017 17.4204 85.3348 16.3907L83.3606 16.7109C83.5061 17.6082 83.582 18.6724 83.582 19.9102H85.582ZM85.3371 16.4057C85.1854 15.3717 84.9531 14.4538 84.6267 13.6674L82.7795 14.4342C83.026 15.028 83.2234 15.7767 83.3582 16.6959L85.3371 16.4057ZM84.6267 13.6674C84.2989 12.8775 83.8645 12.1958 83.3059 11.6535L81.9129 13.0887C82.2396 13.4058 82.5345 13.8438 82.7795 14.4342L84.6267 13.6674ZM83.3165 11.664C82.7791 11.1266 82.1464 10.7319 81.4281 10.4871L80.7828 12.3801C81.2104 12.5259 81.5803 12.7562 81.9023 13.0782L83.3165 11.664ZM81.4542 10.4964C80.7649 10.2399 80.0125 10.1211 79.2109 10.1211V12.1211C79.8156 12.1211 80.3262 12.2106 80.7567 12.3708L81.4542 10.4964ZM79.2109 10.1211C78.2237 10.1211 77.3073 10.3087 76.4856 10.7115L77.3659 12.5073C77.8724 12.259 78.4795 12.1211 79.2109 12.1211V10.1211ZM76.5 10.7046C75.6495 11.1048 74.9554 11.7388 74.4116 12.5622L76.0806 13.6643C76.4483 13.1075 76.874 12.7389 77.3516 12.5142L76.5 10.7046ZM74.4044 12.5733C73.8756 13.3976 73.5019 14.428 73.2517 15.6233L75.2093 16.033C75.4278 14.9887 75.7312 14.2091 76.0878 13.6532L74.4044 12.5733ZM73.2517 15.6233C72.9989 16.8312 72.8789 18.2648 72.8789 19.9102H74.8789C74.8789 18.3524 74.9933 17.0647 75.2093 16.033L73.2517 15.6233ZM72.8789 19.9102V25.4375H74.8789V19.9102H72.8789ZM72.8789 25.4375C72.8789 26.7489 72.9524 27.9254 73.1043 28.9615L75.0832 28.6713C74.9487 27.7543 74.8789 26.6782 74.8789 25.4375H72.8789ZM73.1063 28.9744C73.2718 30.009 73.5177 30.9353 73.8548 31.7413L75.6999 30.9697C75.438 30.3434 75.2282 29.5769 75.0812 28.6584L73.1063 28.9744ZM73.8573 31.7473C74.1932 32.5359 74.6172 33.2215 75.1435 33.7798L76.5987 32.4077C76.2656 32.0545 75.9604 31.5812 75.6974 30.9636L73.8573 31.7473ZM75.1435 33.7798C75.6697 34.3378 76.286 34.7619 76.9878 35.0393L77.7231 33.1794C77.3052 33.0142 76.9319 32.7612 76.5987 32.4077L75.1435 33.7798ZM77.0137 35.0492C77.7096 35.3022 78.4586 35.4219 79.25 35.4219V33.4219C78.6612 33.4219 78.1471 33.3332 77.6972 33.1696L77.0137 35.0492ZM79.25 35.4219C80.2638 35.4219 81.1996 35.2275 82.0284 34.805L81.12 33.0232C80.6207 33.2777 80.007 33.4219 79.25 33.4219V35.4219ZM82.0284 34.805C82.8759 34.3729 83.5588 33.709 84.085 32.8579L82.3838 31.8062C82.0245 32.3873 81.6007 32.7781 81.12 33.0232L82.0284 34.805ZM84.0824 32.862C84.6209 32.0004 84.9942 30.945 85.2314 29.7308L83.2686 29.3473C83.0631 30.3987 82.7593 31.2053 82.3864 31.802L84.0824 32.862ZM85.2318 29.7287C85.4687 28.5026 85.582 27.0686 85.582 25.4375H83.582C83.582 26.9835 83.474 28.2838 83.2682 29.3494L85.2318 29.7287Z" fill="#F08803"/>
<rect y="12" width="37" height="10" fill="white"/>
<path d="M51 54H110V64H53C51.8954 64 51 63.1046 51 62V54Z" fill="white"/>
<path d="M37.0225 11.8228L60.5055 59.8973L54.2158 62.9696C52.727 63.6968 50.9307 63.0795 50.2035 61.5907L28.0371 16.2118L37.0225 11.8228Z" fill="white"/>
<path d="M126.5 23L110.293 63.5299L101.938 60.2089C101.421 60.0036 101.171 59.4163 101.382 58.9017L116 23.0963L121.484 23.0963L126.5 23Z" fill="white"/>
<circle cx="59" cy="75" r="8" fill="white"/>
<circle cx="106" cy="75" r="8" fill="white"/>
</svg>
